# xmcd
#
# Track frame offsets:
#	150
#	12111
#	25074
#	37668
#	50398
#	63048
#	75558
#	89775
#	103566
#	113550
#	126513
#	140451
#	152381
#	162869
#	175235
#	183959
#	196161
#	207999
#	220564
#	232402
#
# Disc length: 3266 seconds
#
# Revision: 0
# Processed by: cddbd v1.5.2PL0 Copyright (c) Steve Scherf et al.
# Submitted via: audiograbber 1.83.01
#
DISCID=fd0cc014
DTITLE=Various Artist - Country and Western - 200 No.1- Hits (1944-1962) - CD8
DYEAR=2017
DGENRE=Country
TTITLE0=Hank Williams - Long Gone Lonesome Blues (1950)
TTITLE1=Eddy Arnold - Take Me In Your Arms And Hold Me (1950)
TTITLE2=Red Foley - Chattanoogie Shoe Shine Boy (1950)
TTITLE3=Delmore Brothers - Blues Stay Away From Me (1950)
TTITLE4=Leon Payne - I Love You Because (1950)
TTITLE5=Ernest Tubb - Blue Christmas (1950)
TTITLE6=Gene Autry - Rudolph The Red Nosed Reindeer (1950)
TTITLE7=Tennessie Ernie Ford - Mule Train (1949)
TTITLE8=Margaret Whiting and Jimmy Wakely - Slipping Around (1949)
TTITLE9=Ernest Tubb - Slipping Around (1949)
TTITLE10=Wayne Raney - Why Don't You Haul Off And Love Me (1949)
TTITLE11=Eddy Arnold - I'm Throwing Rice (At The Girl That I Love) (1949)
TTITLE12=Eddy Arnold - One Kiss Too Many (1949)
TTITLE13=Hank Williams - Lovesick Blues (1949)
TTITLE14=George Morgan - Candy Kisses (1949)
TTITLE15=Red Foley - Tennessee Saturday Night (1949)
TTITLE16=Eddy Arnold - Don't Rob Another Man's Castle (1949)
TTITLE17=Jimmy Wakely - I Love You So Much It Hurts (1949)
TTITLE18=Eddy Arnold - A Heart Full Of Love (For A Hand Full Of Kisses) (1948)
TTITLE19=Jimmy Wakely - One Has My Name (The Other Has My Heart) (1948)
EXTD=
EXTT0=
EXTT1=
EXTT2=
EXTT3=
EXTT4=
EXTT5=
EXTT6=
EXTT7=
EXTT8=
EXTT9=
EXTT10=
EXTT11=
EXTT12=
EXTT13=
EXTT14=
EXTT15=
EXTT16=
EXTT17=
EXTT18=
EXTT19=
PLAYORDER=
